<?xml version="1.0" encoding="UTF-8" standalone="no"?>
<svg width="300" height="200" viewBox="0 0 300 200" xmlns="http://www.w3.org/2000/svg">
  <!-- Macaron Bottom -->
  <ellipse cx="150" cy="130" rx="70" ry="25" fill="#B6B1A9" />
  
  <!-- Macaron Filling -->
  <rect x="80" y="105" width="140" height="25" fill="#8B7E74" />
  
  <!-- Macaron Top -->
  <ellipse cx="150" cy="105" rx="70" ry="25" fill="#B6B1A9" />
  
  <!-- Texture Details for Top -->
  <g opacity="0.15">
    <ellipse cx="120" cy="95" rx="15" ry="10" fill="white" />
    <ellipse cx="170" cy="100" rx="20" ry="5" fill="white" />
    <ellipse cx="140" cy="110" rx="10" ry="5" fill="white" />
  </g>
  
  <!-- Texture Details for Bottom -->
  <g opacity="0.15">
    <ellipse cx="130" cy="130" rx="15" ry="8" fill="white" />
    <ellipse cx="180" cy="125" rx="10" ry="7" fill="white" />
    <ellipse cx="160" cy="135" rx="12" ry="4" fill="white" />
  </g>
  
  <!-- Tea leaf specks -->
  <g fill="#40392F" opacity="0.8">
    <path d="M105,102 L107,103 L106,106 L104,105 Z" />
    <path d="M125,98 L128,99 L127,102 L124,101 Z" />
    <path d="M145,103 L147,104 L146,107 L144,106 Z" />
    <path d="M165,97 L167,98 L166,101 L164,100 Z" />
    <path d="M185,104 L187,105 L186,108 L184,107 Z" />
    
    <path d="M110,127 L112,128 L111,131 L109,130 Z" />
    <path d="M130,132 L132,133 L131,136 L129,135 Z" />
    <path d="M150,128 L152,129 L151,132 L149,131 Z" />
    <path d="M170,133 L172,134 L171,137 L169,136 Z" />
  </g>
  
  <!-- Bergamot illustration -->
  <g transform="translate(90, 80) scale(0.3)">
    <circle cx="0" cy="0" r="25" fill="#FFB833" />
    <path d="M0,-25 C-10,-20 -15,-10 -15,0 C-15,15 -5,25 0,25 C5,25 15,15 15,0 C15,-10 10,-20 0,-25 Z" fill="#FF9505" />
    <path d="M0,-5 L0,-25 M-5,-20 L5,-20" stroke="#00563B" stroke-width="2" />
  </g>
  
  <!-- Tea cup illustration -->
  <g transform="translate(210, 80) scale(0.25)">
    <path d="M-50,0 C-50,20 -30,40 0,40 C30,40 50,20 50,0 L40,-20 L-40,-20 Z" fill="#F3F1EB" />
    <path d="M-40,-20 L-30,-60 L30,-60 L40,-20" fill="none" stroke="#F3F1EB" stroke-width="5" />
    <ellipse cx="0" cy="0" rx="35" ry="10" fill="#8B7E74" opacity="0.5" />
  </g>
</svg>