<?xml version="1.0" encoding="UTF-8" standalone="no"?>
<svg width="300" height="200" viewBox="0 0 300 200" xmlns="http://www.w3.org/2000/svg">
  <!-- Macaron Bottom -->
  <ellipse cx="150" cy="130" rx="70" ry="25" fill="#A0C49D" />
  
  <!-- Macaron Filling -->
  <rect x="80" y="105" width="140" height="25" fill="#6E8C5B" />
  
  <!-- Macaron Top -->
  <ellipse cx="150" cy="105" rx="70" ry="25" fill="#A0C49D" />
  
  <!-- Texture Details for Top -->
  <g opacity="0.15">
    <ellipse cx="120" cy="95" rx="15" ry="10" fill="white" />
    <ellipse cx="170" cy="100" rx="20" ry="5" fill="white" />
    <ellipse cx="140" cy="110" rx="10" ry="5" fill="white" />
  </g>
  
  <!-- Texture Details for Bottom -->
  <g opacity="0.15">
    <ellipse cx="130" cy="130" rx="15" ry="8" fill="white" />
    <ellipse cx="180" cy="125" rx="10" ry="7" fill="white" />
    <ellipse cx="160" cy="135" rx="12" ry="4" fill="white" />
  </g>
  
  <!-- Crushed pistachio pieces -->
  <g fill="#E5D9B6" opacity="0.9">
    <path d="M110,105 L113,102 L116,105 L113,107 Z" />
    <path d="M125,98 L129,100 L127,104 L123,102 Z" />
    <path d="M145,107 L148,105 L151,108 L148,110 Z" />
    <path d="M165,102 L169,100 L170,104 L166,105 Z" />
    <path d="M180,107 L184,105 L186,108 L182,109 Z" />
    
    <path d="M115,130 L119,128 L120,132 L116,133 Z" />
    <path d="M135,132 L138,130 L141,133 L138,135 Z" />
    <path d="M155,127 L158,125 L161,128 L158,130 Z" />
    <path d="M175,133 L178,130 L181,133 L178,135 Z" />
  </g>
  
  <!-- Pistachio nut illustration -->
  <g transform="translate(100, 80) scale(0.5)">
    <path d="M0,0 C10,5 20,5 25,0 C30,-5 25,-15 15,-15 C5,-15 -5,-5 0,0 Z" fill="#E5D9B6" />
    <path d="M5,-2 C12,2 20,2 22,-1 C24,-4 20,-12 15,-12 C10,-12 2,-4 5,-2 Z" fill="#6E8C5B" />
  </g>
</svg>