<?xml version="1.0" encoding="UTF-8" standalone="no"?>
<svg width="300" height="200" viewBox="0 0 300 200" xmlns="http://www.w3.org/2000/svg">
  <!-- Macaron Bottom -->
  <ellipse cx="150" cy="130" rx="70" ry="25" fill="#C68E17" />
  
  <!-- Macaron Filling -->
  <rect x="80" y="105" width="140" height="25" fill="#A3620A" />
  
  <!-- Macaron Top -->
  <ellipse cx="150" cy="105" rx="70" ry="25" fill="#C68E17" />
  
  <!-- Texture Details for Top -->
  <g opacity="0.15">
    <ellipse cx="120" cy="95" rx="15" ry="10" fill="white" />
    <ellipse cx="170" cy="100" rx="20" ry="5" fill="white" />
    <ellipse cx="140" cy="110" rx="10" ry="5" fill="white" />
  </g>
  
  <!-- Texture Details for Bottom -->
  <g opacity="0.15">
    <ellipse cx="130" cy="130" rx="15" ry="8" fill="white" />
    <ellipse cx="180" cy="125" rx="10" ry="7" fill="white" />
    <ellipse cx="160" cy="135" rx="12" ry="4" fill="white" />
  </g>
  
  <!-- Caramel drizzle -->
  <path d="M100,100 Q140,80 180,105" 
        stroke="#8B4513" 
        stroke-width="3" 
        fill="none"
        opacity="0.8" />
  
  <path d="M110,130 Q150,145 190,125" 
        stroke="#8B4513" 
        stroke-width="3" 
        fill="none"
        opacity="0.8" />
  
  <!-- Salt crystals -->
  <g fill="white" opacity="0.9">
    <rect x="120" y="93" width="3" height="3" />
    <rect x="140" y="98" width="2" height="2" />
    <rect x="160" y="95" width="3" height="3" />
    <rect x="130" y="110" width="2" height="2" />
    <rect x="170" y="107" width="2" height="2" />
    
    <rect x="125" y="125" width="3" height="3" />
    <rect x="145" y="130" width="2" height="2" />
    <rect x="165" y="128" width="3" height="3" />
  </g>
</svg>