<?xml version="1.0" encoding="UTF-8" standalone="no"?>
<svg width="300" height="200" viewBox="0 0 300 200" xmlns="http://www.w3.org/2000/svg">
  <!-- Macaron Bottom -->
  <ellipse cx="150" cy="130" rx="70" ry="25" fill="#3C2218" />
  
  <!-- Macaron Filling -->
  <rect x="80" y="105" width="140" height="25" fill="#2A1506" />
  
  <!-- Macaron Top -->
  <ellipse cx="150" cy="105" rx="70" ry="25" fill="#3C2218" />
  
  <!-- Texture Details for Top -->
  <g opacity="0.2">
    <ellipse cx="120" cy="95" rx="15" ry="10" fill="white" />
    <ellipse cx="170" cy="100" rx="20" ry="5" fill="white" />
    <ellipse cx="140" cy="110" rx="10" ry="5" fill="white" />
  </g>
  
  <!-- Texture Details for Bottom -->
  <g opacity="0.2">
    <ellipse cx="130" cy="130" rx="15" ry="8" fill="white" />
    <ellipse cx="180" cy="125" rx="10" ry="7" fill="white" />
    <ellipse cx="160" cy="135" rx="12" ry="4" fill="white" />
  </g>
  
  <!-- Chocolate drizzle -->
  <path d="M90,100 Q110,90 100,105 Q90,115 95,125 Q105,135 100,150" 
        stroke="#2A1506" 
        stroke-width="3" 
        fill="none"
        opacity="0.7" />
  
  <path d="M180,95 Q190,110 185,120 Q175,130 185,140" 
        stroke="#2A1506" 
        stroke-width="3" 
        fill="none"
        opacity="0.7" />
  
  <!-- Chocolate chips -->
  <g fill="#2A1506">
    <circle cx="135" cy="95" r="3" />
    <circle cx="155" cy="100" r="2.5" />
    <circle cx="175" cy="97" r="3.5" />
    <circle cx="125" cy="115" r="3" />
    <circle cx="165" cy="135" r="2.5" />
    <circle cx="145" cy="132" r="3" />
  </g>
</svg>