<?xml version="1.0" encoding="UTF-8" standalone="no"?>
<svg width="300" height="200" viewBox="0 0 300 200" xmlns="http://www.w3.org/2000/svg">
  <!-- Macaron Bottom -->
  <ellipse cx="150" cy="130" rx="70" ry="25" fill="#FFF8A9" />
  
  <!-- Macaron Filling -->
  <rect x="80" y="105" width="140" height="25" fill="#FFD966" />
  
  <!-- Macaron Top -->
  <ellipse cx="150" cy="105" rx="70" ry="25" fill="#FFF8A9" />
  
  <!-- Texture Details for Top -->
  <g opacity="0.15">
    <ellipse cx="120" cy="95" rx="15" ry="10" fill="white" />
    <ellipse cx="170" cy="100" rx="20" ry="5" fill="white" />
    <ellipse cx="140" cy="110" rx="10" ry="5" fill="white" />
  </g>
  
  <!-- Texture Details for Bottom -->
  <g opacity="0.15">
    <ellipse cx="130" cy="130" rx="15" ry="8" fill="white" />
    <ellipse cx="180" cy="125" rx="10" ry="7" fill="white" />
    <ellipse cx="160" cy="135" rx="12" ry="4" fill="white" />
  </g>
  
  <!-- Lemon zest -->
  <g fill="#FFD966" opacity="0.8">
    <path d="M110,97 L112,99 L110,101 L108,99 Z" />
    <path d="M125,102 L127,104 L125,106 L123,104 Z" />
    <path d="M140,95 L142,97 L140,99 L138,97 Z" />
    <path d="M155,103 L157,105 L155,107 L153,105 Z" />
    <path d="M170,97 L172,99 L170,101 L168,99 Z" />
    <path d="M185,102 L187,104 L185,106 L183,104 Z" />
    
    <path d="M115,125 L117,127 L115,129 L113,127 Z" />
    <path d="M130,130 L132,132 L130,134 L128,132 Z" />
    <path d="M145,125 L147,127 L145,129 L143,127 Z" />
    <path d="M160,132 L162,134 L160,136 L158,134 Z" />
    <path d="M175,127 L177,129 L175,131 L173,129 Z" />
  </g>
  
  <!-- Lemon slice illustration -->
  <g transform="translate(200, 75) scale(0.3)">
    <circle cx="0" cy="0" r="40" fill="#FFF8A9" />
    <circle cx="0" cy="0" r="35" fill="#FFD966" />
    <circle cx="0" cy="0" r="30" fill="#fff9c4" />
    <g fill="none" stroke="#FFF8A9" stroke-width="2">
      <line x1="0" y1="-30" x2="0" y2="30" />
      <line x1="-26" y1="-15" x2="26" y2="15" />
      <line x1="-26" y1="15" x2="26" y2="-15" />
    </g>
    <circle cx="0" cy="0" r="5" fill="#FFF8A9" />
  </g>
</svg>