<?xml version="1.0" encoding="UTF-8" standalone="no"?>
<svg width="300" height="200" viewBox="0 0 300 200" xmlns="http://www.w3.org/2000/svg">
  <!-- Macaron Bottom -->
  <ellipse cx="150" cy="130" rx="70" ry="25" fill="#F7A5A5" />
  
  <!-- Macaron Filling -->
  <rect x="80" y="105" width="140" height="25" fill="#C42847" />
  
  <!-- Macaron Top -->
  <ellipse cx="150" cy="105" rx="70" ry="25" fill="#F7A5A5" />
  
  <!-- Texture Details for Top -->
  <g opacity="0.15">
    <ellipse cx="120" cy="95" rx="15" ry="10" fill="white" />
    <ellipse cx="170" cy="100" rx="20" ry="5" fill="white" />
    <ellipse cx="140" cy="110" rx="10" ry="5" fill="white" />
  </g>
  
  <!-- Texture Details for Bottom -->
  <g opacity="0.15">
    <ellipse cx="130" cy="130" rx="15" ry="8" fill="white" />
    <ellipse cx="180" cy="125" rx="10" ry="7" fill="white" />
    <ellipse cx="160" cy="135" rx="12" ry="4" fill="white" />
  </g>
  
  <!-- Raspberry seeds -->
  <g fill="#F0E68C" opacity="0.9">
    <circle cx="120" cy="105" r="1" />
    <circle cx="125" cy="110" r="1" />
    <circle cx="130" cy="105" r="1" />
    <circle cx="135" cy="112" r="1" />
    <circle cx="140" cy="107" r="1" />
    <circle cx="145" cy="114" r="1" />
    <circle cx="150" cy="108" r="1" />
    <circle cx="155" cy="115" r="1" />
    <circle cx="160" cy="107" r="1" />
    <circle cx="165" cy="113" r="1" />
    <circle cx="170" cy="106" r="1" />
    <circle cx="175" cy="112" r="1" />
    <circle cx="180" cy="108" r="1" />
  </g>
  
  <!-- Raspberry illustration -->
  <g transform="translate(190, 90) scale(0.4)">
    <g fill="#C42847">
      <circle cx="0" cy="0" r="10" />
      <circle cx="7" cy="7" r="10" />
      <circle cx="7" cy="-7" r="10" />
      <circle cx="-7" cy="7" r="10" />
      <circle cx="-7" cy="-7" r="10" />
      <circle cx="12" cy="0" r="10" />
      <circle cx="-12" cy="0" r="10" />
      <circle cx="0" cy="12" r="10" />
      <circle cx="0" cy="-12" r="10" />
    </g>
    <g fill="#F0E68C">
      <circle cx="3" cy="3" r="1" />
      <circle cx="-3" cy="3" r="1" />
      <circle cx="3" cy="-3" r="1" />
      <circle cx="-3" cy="-3" r="1" />
      <circle cx="8" cy="0" r="1" />
      <circle cx="-8" cy="0" r="1" />
      <circle cx="0" cy="8" r="1" />
      <circle cx="0" cy="-8" r="1" />
    </g>
  </g>
</svg>