<?xml version="1.0" encoding="UTF-8" standalone="no"?>
<svg width="300" height="200" viewBox="0 0 300 200" xmlns="http://www.w3.org/2000/svg">
  <!-- Macaron Bottom -->
  <ellipse cx="150" cy="130" rx="70" ry="25" fill="#F5F5DC" />
  
  <!-- Macaron Filling -->
  <rect x="80" y="105" width="140" height="25" fill="#FFF6E0" />
  
  <!-- Macaron Top -->
  <ellipse cx="150" cy="105" rx="70" ry="25" fill="#F5F5DC" />
  
  <!-- Texture Details for Top -->
  <g opacity="0.1">
    <ellipse cx="120" cy="95" rx="15" ry="10" fill="white" />
    <ellipse cx="170" cy="100" rx="20" ry="5" fill="white" />
    <ellipse cx="140" cy="110" rx="10" ry="5" fill="white" />
  </g>
  
  <!-- Texture Details for Bottom -->
  <g opacity="0.1">
    <ellipse cx="130" cy="130" rx="15" ry="8" fill="white" />
    <ellipse cx="180" cy="125" rx="10" ry="7" fill="white" />
    <ellipse cx="160" cy="135" rx="12" ry="4" fill="white" />
  </g>
  
  <!-- Small vanilla specks -->
  <g fill="#8B4513" opacity="0.5">
    <circle cx="110" cy="105" r="1" />
    <circle cx="125" cy="100" r="1" />
    <circle cx="140" cy="107" r="1" />
    <circle cx="155" cy="102" r="1" />
    <circle cx="170" cy="106" r="1" />
    <circle cx="185" cy="104" r="1" />
    
    <circle cx="115" cy="130" r="1" />
    <circle cx="130" cy="135" r="1" />
    <circle cx="145" cy="127" r="1" />
    <circle cx="160" cy="133" r="1" />
    <circle cx="175" cy="129" r="1" />
  </g>
  
  <!-- Vanilla bean illustration -->
  <g transform="translate(130, 80) scale(0.5) rotate(45)">
    <path d="M0,0 C10,15 20,30 15,40 C10,50 0,45 -5,35 C-10,25 -5,10 0,0 Z" fill="#8B4513" />
    <path d="M0,5 C8,15 15,25 12,35 C9,45 0,40 -3,32 C-6,22 -3,12 0,5 Z" fill="#A0522D" />
  </g>
</svg>